<svg width="17" height="23" viewBox="0 0 17 23" fill="none" xmlns="http://www.w3.org/2000/svg">
<g filter="url(#filter0_d_27_429)">
<path d="M11.9427 13.3077C12.0007 13.3657 12.0468 13.4347 12.0782 13.5105C12.1097 13.5864 12.1258 13.6677 12.1258 13.7499C12.1258 13.832 12.1097 13.9133 12.0782 13.9892C12.0468 14.065 12.0007 14.134 11.9427 14.192C11.8846 14.2501 11.8157 14.2962 11.7398 14.3276C11.6639 14.359 11.5826 14.3752 11.5005 14.3752C11.4184 14.3752 11.3371 14.359 11.2612 14.3276C11.1853 14.2962 11.1164 14.2501 11.0583 14.192L4.8083 7.94205C4.75019 7.884 4.70409 7.81507 4.67264 7.7392C4.64119 7.66332 4.625 7.58199 4.625 7.49986C4.625 7.41772 4.64119 7.3364 4.67264 7.26052C4.70409 7.18465 4.75019 7.11572 4.8083 7.05767L11.0583 0.807672C11.1756 0.690396 11.3346 0.624512 11.5005 0.624512C11.6663 0.624512 11.8254 0.690396 11.9427 0.807672C12.06 0.924947 12.1258 1.08401 12.1258 1.24986C12.1258 1.41571 12.06 1.57477 11.9427 1.69205L6.13409 7.49986L11.9427 13.3077Z" fill="#6A0BFF"/>
</g>
<defs>
<filter id="filter0_d_27_429" x="0.625" y="0.624512" width="15.5009" height="21.7507" filterUnits="userSpaceOnUse" color-interpolation-filters="sRGB">
<feFlood flood-opacity="0" result="BackgroundImageFix"/>
<feColorMatrix in="SourceAlpha" type="matrix" values="0 0 0 0 0 0 0 0 0 0 0 0 0 0 0 0 0 0 127 0" result="hardAlpha"/>
<feOffset dy="4"/>
<feGaussianBlur stdDeviation="2"/>
<feComposite in2="hardAlpha" operator="out"/>
<feColorMatrix type="matrix" values="0 0 0 0 0 0 0 0 0 0 0 0 0 0 0 0 0 0 0.25 0"/>
<feBlend mode="normal" in2="BackgroundImageFix" result="effect1_dropShadow_27_429"/>
<feBlend mode="normal" in="SourceGraphic" in2="effect1_dropShadow_27_429" result="shape"/>
</filter>
</defs>
</svg>
