<svg width="29" height="28" viewBox="0 0 29 28" fill="none" xmlns="http://www.w3.org/2000/svg">
<rect x="0.5" y="-0.5" width="27" height="27" rx="13.5" transform="matrix(1 1.74846e-07 1.74846e-07 -1 0.5 27)" stroke="#6A0BFF"/>
<path fill-rule="evenodd" clip-rule="evenodd" d="M15.7234 19.4419C15.9675 19.686 16.3632 19.686 16.6073 19.4419L21.6073 14.4419C21.8514 14.1979 21.8514 13.8021 21.6073 13.5581L16.6073 8.55806C16.3632 8.31398 15.9675 8.31398 15.7234 8.55806C15.4793 8.80214 15.4793 9.19787 15.7234 9.44194L19.6565 13.375L7.83203 13.375C7.48685 13.375 7.20703 13.6548 7.20703 14C7.20703 14.3452 7.48685 14.625 7.83203 14.625L19.6565 14.625L15.7234 18.5581C15.4793 18.8021 15.4793 19.1979 15.7234 19.4419Z" fill="#6A0BFF"/>
</svg>
